<svg width="10" height="16" viewBox="0 0 10 16" fill="none" xmlns="http://www.w3.org/2000/svg">
<path d="M9.9668 0.5C9.9668 0.223858 9.74132 -0.00587605 9.46826 0.0352736C7.7661 0.291787 6.52964 2.04685 6.46912 8.49659C6.46653 8.77272 6.69072 8.9919 6.96682 8.99703C7.52681 9.00744 7.96682 9.12759 7.96683 10V15.5C7.96683 15.7762 8.19068 16 8.46683 16L9.4668 16C9.74294 16 9.9668 15.7761 9.9668 15.5V0.5Z" fill="#000000"/>
<path d="M1.21676 0C1.35481 2.0795e-05 1.46676 0.111942 1.46676 0.25V5.37207C1.46676 5.44267 1.52408 5.5 1.59469 5.5C1.66298 5.49993 1.71952 5.44616 1.72262 5.37793L1.95602 0.238281C1.96227 0.104939 2.07248 0 2.20602 0H2.7275C2.86103 0 2.97125 0.104938 2.9775 0.238281L3.2109 5.37793C3.214 5.44619 3.27051 5.49997 3.33883 5.5C3.40943 5.5 3.46676 5.44267 3.46676 5.37207V0.25C3.46676 0.111929 3.57869 0 3.71676 0H4.0068C4.26662 7.34561e-05 4.48303 0.19914 4.50484 0.458008L4.9277 5.52734C4.95341 5.83657 4.89361 6.14727 4.75484 6.4248C4.56947 6.79549 4.25391 7.08533 3.8691 7.23926L3.81539 7.26074C3.45588 7.40455 3.22393 7.75749 3.23531 8.14453L3.43746 15C3.45356 15.5472 3.0142 16 2.46676 16C1.91929 16 1.47996 15.5472 1.49606 15L1.6982 8.14453C1.70959 7.7575 1.47762 7.40456 1.11813 7.26074L1.06441 7.23926C0.679616 7.08534 0.364051 6.79547 0.178673 6.4248C0.0399036 6.14727 -0.0198909 5.83657 0.00582114 5.52734L0.428673 0.458008C0.450493 0.199118 0.666865 3.42228e-05 0.92672 0H1.21676Z" fill="#000000"/>
</svg>
